# xmcd
#
# Track frame offsets:
# 182
# 32570
# 62507
# 76157
# 93857
# 117257
# 147332
# 156332
# 170057
# 178257
# 214362
# 228790
# 243527
#
# Disc length: 3766 seconds
#
#
# Revision: 9
# Processed by: cddbd v1.5.2PL0 Copyright (c) Steve Scherf et al.
# Submitted via: FreeRIP 2.951
#
DISCID=ae0eb40d
DTITLE=Mozart / Die Zauberflöte (1st act) CD 1
DYEAR=1984
DGENRE=Opera
TTITLE0=Ouvertüre
TTITLE1=Zu Hilfe! Zu Hilfe
TTITLE2=Der Vogelfanger Bin Ich Ja
TTITLE3=Dies Bildnis Ist Bezaubernd Schön
TTITLE4=O Zittre Nicht
TTITLE5=Hm! Hm! Hm! Hm!
TTITLE6=Du Feines Taubchen, Nur Herein
TTITLE7=Bei Männern, Welche Liebe Fühlen
TTITLE8=Zum Ziele Fährt Dich Diese Bahn
TTITLE9=Die Weisheitslehre Dieser Knaben
TTITLE10=Wie Stark Ist Nicht Dein Zauberton
TTITLE11=Schnelle Fusse, Rascher Mut
TTITLE12=Es Lebe Sarasto, Sarastro Soll Leben
EXTD=Sarastro: KURT MOLL \nTamino: PETER SCHREIER \nPamina: MARGARET PRICE \nKonigin der Nacht: LUCIANA SERRA \nPapageno: MIKAEL MELBYE \nPapagena: MARIA VENUTI \nSprecher: THEO ADAM \nZweiter Sprecher: ARMIN UDE \nErste Dame: MARIE McLAUGHLIN \nZweite D
EXTD=ame: ANN MURRAY \nDritte Dame: HANNA SCHWARZ \nMonostatos: ROBERT TEAR\nRundfunkchor Leipzig Staatskapelle Dresden \nSir Colin Davis
EXTT0=
EXTT1=
EXTT2=
EXTT3=
EXTT4=
EXTT5=
EXTT6=
EXTT7=
EXTT8=
EXTT9=
EXTT10=
EXTT11=
EXTT12=
PLAYORDER=
.
